# xmcd
#
# Track frame offsets:
#	150
#	16401
#	28922
#	45336
#	59311
#	77572
#	95859
#	112892
#	133829
#	147439
#	164887
#	185350
#	203846
#	218447
#	232167
#
# Disc length: 3299 seconds
#
# Revision: 1
# Processed by: cddbd v1.5.2PL0 Copyright (c) Steve Scherf et al.
# Submitted via: audiograbber 1.83.01
#
DISCID=d70ce10f
DTITLE=Chartbuster Time LIne Series - 80132
DYEAR=2005
DGENRE=Country
TTITLE0=BILLY RAY CYRUS - ACHY BREAKY HEART
TTITLE1=TRISHA YEARWOOD - THAT'S WHAT I LIKE ABOUT YOU
TTITLE2=DOUG STONE - A JUKEBOX WITH A COUNTRY SONG
TTITLE3=TANYA TUCKER - WITHOUT YOU WHAT DO I DO WITH ME
TTITLE4=COLLIN RAYE - LOVE, ME
TTITLE5=REBA MCENTIRE - IS THERE LIFE OUT THERE
TTITLE6=TRACY LAWRENCE - STICKS AND STONES
TTITLE7=WYNONNA - SHE IS HIS ONLY NEED
TTITLE8=AARON TIPPIN - THERE AIN'T NOTHIN' WRONG WITH THE RADIO
TTITLE9=TANYA TUCKER - SOME KIND OF TROUBLE
TTITLE10=BROOKS and DUNN - NEON MOON
TTITLE11=PAM TILLIS - MAYBE IT WAS MEMPHIS
TTITLE12=MARK CHESNUTT - BUBBA SHOT THE JUKEBOX
TTITLE13=LORRIE MORGAN - EXCEPT FOR MONDAY
TTITLE14=SAWYER BROWN - SOME GIRLS DO
EXTD=
EXTT0=
EXTT1=
EXTT2=
EXTT3=
EXTT4=
EXTT5=
EXTT6=
EXTT7=
EXTT8=
EXTT9=
EXTT10=
EXTT11=
EXTT12=
EXTT13=
EXTT14=
PLAYORDER=
